<svg xmlns="http://www.w3.org/2000/svg" version="1.1" style="font-family:Lato, &#x27;Helvetica Neue&#x27;, Helvetica, Arial, sans-serif;font-size:18px;background-color:white;text-rendering:optimizeLegibility;-webkit-font-smoothing:antialiased" width="850" height="600"><g class="HeaderView"><g transform="translate(774, 15) scale(0.29)"><svg width="210" height="120" viewBox="0 0 210 120" fill="none" xmlns="http://www.w3.org/2000/svg"><defs>
        <clipPath id="clip0">
            <rect width="210" height="120" fill="white"/>
        </clipPath>
    </defs>
</svg></g><a href="https://ourworldindata.org/grapher/world-population-supported-by-synthetic-nitrogen-fertilizers" target="_blank"><text font-size="25.20" x="15.0" y="35.2" fill="#555"><tspan x="15" y="35.160000000000004">World population supported by synthetic nitrogen fertilizers</tspan></text></a><text font-size="14.40" x="15.0" y="53.7" fill="#666"><tspan x="15" y="53.72">Estimates of the share of the global population which could be supported with and without the production of</tspan><tspan x="15" y="69.56">synthetic nitrogen fertilizers (via the Haber-Bosch process) for food production. Best estimates project that just over</tspan><tspan x="15" y="85.4">half of the global population could be sustained without reactive nitrogen fertilizer derived from the Haber-Bosch</tspan><tspan x="15" y="101.24000000000001">process.</tspan></text></g><g class="StackedArea"><defs><clipPath id="boundsClip-17"><rect x="75.08" y="0" width="820" height="870.8"></rect></clipPath></defs><g class="AxisBoxView"><g class="HorizontalAxis"><text x="75.1" y="556.5" fill="#666" text-anchor="middle" font-size="16.2">1900</text><text x="182.9" y="556.5" fill="#666" text-anchor="middle" font-size="16.2">1920</text><text x="290.7" y="556.5" fill="#666" text-anchor="middle" font-size="16.2">1940</text><text x="398.6" y="556.5" fill="#666" text-anchor="middle" font-size="16.2">1960</text><text x="506.4" y="556.5" fill="#666" text-anchor="middle" font-size="16.2">1980</text><text x="614.2" y="556.5" fill="#666" text-anchor="middle" font-size="16.2">2000</text><text x="695.1" y="556.5" fill="#666" text-anchor="middle" font-size="16.2">2015</text></g><g class="VerticalAxis"><text x="70.08" y="535.3" fill="#666" dominant-baseline="middle" text-anchor="end" font-size="16.2">0</text><text x="70.08" y="479.2" fill="#666" dominant-baseline="middle" text-anchor="end" font-size="16.2">1 billion</text><text x="70.08" y="423.1" fill="#666" dominant-baseline="middle" text-anchor="end" font-size="16.2">2 billion</text><text x="70.08" y="367" fill="#666" dominant-baseline="middle" text-anchor="end" font-size="16.2">3 billion</text><text x="70.08" y="310.9" fill="#666" dominant-baseline="middle" text-anchor="end" font-size="16.2">4 billion</text><text x="70.08" y="254.8" fill="#666" dominant-baseline="middle" text-anchor="end" font-size="16.2">5 billion</text><text x="70.08" y="198.7" fill="#666" dominant-baseline="middle" text-anchor="end" font-size="16.2">6 billion</text><text x="70.08" y="142.6" fill="#666" dominant-baseline="middle" text-anchor="end" font-size="16.2">7 billion</text></g><g class="AxisGridLines"><line x1="75.08" y1="535.3" x2="695.11" y2="535.3" stroke="#ccc"></line><line x1="75.08" y1="479.2" x2="695.11" y2="479.2" stroke="#ddd" stroke-dasharray="3,2"></line><line x1="75.08" y1="423.1" x2="695.11" y2="423.1" stroke="#ddd" stroke-dasharray="3,2"></line><line x1="75.08" y1="367" x2="695.11" y2="367" stroke="#ddd" stroke-dasharray="3,2"></line><line x1="75.08" y1="310.9" x2="695.11" y2="310.9" stroke="#ddd" stroke-dasharray="3,2"></line><line x1="75.08" y1="254.8" x2="695.11" y2="254.8" stroke="#ddd" stroke-dasharray="3,2"></line><line x1="75.08" y1="198.7" x2="695.11" y2="198.7" stroke="#ddd" stroke-dasharray="3,2"></line><line x1="75.08" y1="142.6" x2="695.11" y2="142.6" stroke="#ddd" stroke-dasharray="3,2"></line></g></g><g clip-path="url(#boundsClip-17)"><g class="HeightedLegend" style="cursor:default"><g class="legendMark"><rect x="695.105" y="191.85" width="139.895" height="57.3" fill="#fff" opacity="0"></rect><text font-size="13.50" x="699.1" y="202.7" fill="#e6332e"><tspan x="699.105" y="202.65">Population fed by</tspan><tspan x="699.105" y="217.5">synthetic</tspan><tspan x="699.105" y="232.35000000000002">nitrogen</tspan><tspan x="699.105" y="247.20000000000002">fertilizers</tspan></text></g><g class="legendMark"><rect x="695.105" y="391.65000000000003" width="135.17000000000002" height="71.9" fill="#fff" opacity="0"></rect><text font-size="13.50" x="699.1" y="402.5" fill="#818282"><tspan x="699.105" y="402.45000000000005">Population</tspan><tspan x="699.105" y="417.30000000000007">supported</tspan><tspan x="699.105" y="432.15000000000003">without synthetic</tspan><tspan x="699.105" y="447.00000000000006">nitrogen</tspan><tspan x="699.105" y="461.85">fertilizers</tspan></text></g></g><g class="Areas"><rect x="75.08" y="121.1" width="620.025" height="414.19999999999993" opacity="0" fill="rgba(255,255,255,0)"></rect><path class="World_1-area" stroke-linecap="round" d="M75.1 442.7L80.5 442.2L85.9 441.6L91.3 441L96.6 440.5L102 439.9L107.4 439.3L112.8 438.8L118.2 438.2L129 437.6L236.8 425L290.7 415.3L344.7 404.4L371.6 396.9L398.6 387.3L452.5 377.5L506.4 360.2L560.3 355.9L614.2 342.2L657.4 337.2L695.1 319.9L695.105 535.3L75.08 535.3" fill="#818282" fill-opacity="0.7"></path><path class="World_0-area" stroke-linecap="round" d="M75.1 442.7L80.5 442.2L85.9 441.6L91.3 441L96.6 440.5L102 439.9L107.4 439.3L112.8 438.8L118.2 438.2L129 437.1L236.8 419.2L290.7 406.3L344.7 393L371.6 379.8L398.6 365.1L452.5 327.7L506.4 285.2L560.3 236.2L614.2 190.6L657.4 154.4L695.1 121.1L695.1 319.9L657.4 337.2L614.2 342.2L560.3 355.9L506.4 360.2L452.5 377.5L398.6 387.3L371.6 396.9L344.7 404.4L290.7 415.3L236.8 425L129 437.6L118.2 438.2L112.8 438.8L107.4 439.3L102 439.9L96.6 440.5L91.3 441L85.9 441.6L80.5 442.2L75.1 442.7" fill="#e6332e" fill-opacity="0.7"></path><path class="World_1-border" stroke-linecap="round" d="M75.1 442.7L80.5 442.2L85.9 441.6L91.3 441L96.6 440.5L102 439.9L107.4 439.3L112.8 438.8L118.2 438.2L129 437.6L236.8 425L290.7 415.3L344.7 404.4L371.6 396.9L398.6 387.3L452.5 377.5L506.4 360.2L560.3 355.9L614.2 342.2L657.4 337.2L695.1 319.9" stroke="rgb(108, 109, 109)" stroke-opacity="0.7" stroke-width="0.5" fill="none"></path><path class="World_0-border" stroke-linecap="round" d="M75.1 442.7L80.5 442.2L85.9 441.6L91.3 441L96.6 440.5L102 439.9L107.4 439.3L112.8 438.8L118.2 438.2L129 437.1L236.8 419.2L290.7 406.3L344.7 393L371.6 379.8L398.6 365.1L452.5 327.7L506.4 285.2L560.3 236.2L614.2 190.6L657.4 154.4L695.1 121.1" stroke="rgb(192, 43, 38)" stroke-opacity="0.7" stroke-width="0.5" fill="none"></path></g></g></g><g class="SourcesFooter" style="fill:#777"><g class="clickable" style="fill:#777"><text font-size="12.60" x="15.0" y="581.6"><tspan x="15" y="581.58">Source: Erisman et al. (2008); Smil (2002); Stewart (2005)</tspan></text></g><text font-size="12.60" x="399.8" y="581.6"><tspan x="399.796" y="581.58"><a target='_blank' style='fill: #777;' href='https://ourworldindata.org/how-many-people-does-synthetic-fertilizer-feed/'>OurWorldInData.org/how-many-people-does-synthetic-fertilizer-feed/</a> • <a style="fill: #777;" class="cclogo" href="http://creativecommons.org/licenses/by/4.0/deed.en_US" target="_blank">CC BY</a></tspan></text></g></svg>